<svg version="1.2" xmlns="http://www.w3.org/2000/svg" viewBox="0 0 400 400" width="400" height="400">
	<title>New Project</title>
	<style>
		.s0 { fill: #581eff } 
		.s1 { fill: #ffffff } 
	</style>
	<path id="Background" fill-rule="evenodd" class="s0" d="m200 400c-110.6 0-200-89.4-200-200 0-110.6 89.4-200 200-200 110.6 0 200 89.4 200 200 0 110.6-89.4 200-200 200z"/>
	<path id="Shape 1" fill-rule="evenodd" class="s1" d="m279.8 89.9c-3.7 5.2-3 12.7 1.5 16.9 24.1 22.1 39.4 55.6 39.4 93.2 0 37.6-15.3 71.1-39.4 93.1-4.5 4.2-5.2 11.8-1.5 16.9 3.7 5.2 10.4 6 15 1.8 28.8-26.4 47.2-66.7 47.2-111.8 0-45.1-18.4-85.4-47.2-111.8-4.6-4.2-11.3-3.4-15 1.7zm-26.9 37.3c-3.6 5.1-3 12.7 1.6 16.9 14.4 13.2 23.6 33.3 23.6 55.9 0 22.6-9.2 42.7-23.6 55.9-4.6 4.2-5.3 11.7-1.6 16.9 3.8 5.1 10.5 5.9 15 1.7 19.2-17.6 31.5-44.4 31.5-74.5 0-30.1-12.3-56.9-31.5-74.5-4.5-4.2-11.3-3.5-15 1.7zm-26.8 37.2c-3.7 5.2-3 12.7 1.5 16.9 4.8 4.5 7.9 11.2 7.9 18.7 0 7.5-3.1 14.2-7.9 18.6-4.5 4.2-5.2 11.8-1.5 16.9 3.7 5.2 10.4 6 15 1.8 9.5-8.8 15.7-22.2 15.7-37.3 0-15.1-6.2-28.5-15.7-37.3-4.6-4.2-11.3-3.4-15 1.7zm-49.8-72.4l-59.8 60h-30.1c-15.7 0-28.4 14.3-28.4 32v32c0 17.7 12.7 32 28.4 32h30.1l59.8 60c4.2 4.2 10.2 5.2 15.3 2.6 5.1-2.6 8.4-8.3 8.4-14.6v-192c0-6.3-3.3-12-8.4-14.6-5.1-2.6-11.1-1.6-15.3 2.6z"/>
</svg>